<?xml version="1.0" standalone="no"?>
<!DOCTYPE svg PUBLIC "-//W3C//DTD SVG 20010904//EN"
 "http://www.w3.org/TR/2001/REC-SVG-20010904/DTD/svg10.dtd">
<svg version="1.0" xmlns="http://www.w3.org/2000/svg"
 width="512.000000pt" height="512.000000pt" viewBox="0 0 512.000000 512.000000"
 preserveAspectRatio="xMidYMid meet">
<metadata>
Created by potrace 1.14, written by Peter Selinger 2001-2017
</metadata>
<g transform="translate(0.000000,512.000000) scale(0.100000,-0.100000)"
fill="#000000" stroke="none">
<path d="M893 5106 c-94 -30 -168 -99 -202 -190 l-21 -57 0 -2299 0 -2299 21
-57 c27 -73 86 -136 158 -171 l56 -28 1655 0 1655 0 56 28 c72 35 131 98 158
171 l21 57 -1 1947 0 1947 -296 320 c-163 176 -362 392 -443 480 l-146 160
-1315 2 c-1058 1 -1322 -1 -1356 -11z m2477 -647 c0 -385 1 -403 20 -434 39
-64 49 -65 444 -65 l356 0 0 -1828 c0 -1563 -2 -1831 -14 -1848 -14 -19 -42
-19 -1616 -19 -1574 0 -1602 0 -1616 19 -12 17 -14 343 -14 2276 0 2355 -1
2278 40 2293 8 3 552 6 1208 6 l1192 1 0 -401z m463 -27 c122 -131 184 -204
175 -207 -8 -3 -95 -4 -193 -3 l-180 3 -3 208 c-1 115 1 207 6 205 4 -1 92
-94 195 -206z"/>
<path d="M1354 3704 c-78 -38 -66 -159 18 -179 12 -3 538 -4 1166 -3 l1144 3
24 28 c45 52 25 134 -38 156 -21 8 -379 11 -1157 11 -993 0 -1130 -2 -1157
-16z"/>
<path d="M1329 3021 c-21 -22 -29 -39 -29 -66 0 -27 8 -44 29 -66 l29 -29
1159 0 1159 0 27 28 c20 21 27 38 27 67 0 29 -7 46 -27 67 l-27 28 -1159 0
-1159 0 -29 -29z"/>
<path d="M1329 2381 c-40 -40 -40 -89 0 -133 l29 -33 1109 -3 c609 -2 1131 0
1160 3 68 8 103 41 103 97 0 30 -7 46 -29 69 l-29 29 -1157 0 -1157 0 -29 -29z"/>
<path d="M1360 1749 c-79 -31 -78 -150 1 -178 23 -8 359 -11 1156 -11 1203 0
1176 -1 1202 48 6 12 11 35 11 52 0 17 -5 40 -11 52 -26 49 2 48 -1206 47
-712 0 -1137 -4 -1153 -10z"/>
</g>
</svg>
